<?xml version="1.0" encoding="UTF-8" standalone="no"?>
<svg
   width="1920"
   height="1050"
   viewBox="0 0 1920 1050"
   version="1.1"
   id="svg1350"
   sodipodi:docname="info_covid.svg"
   inkscape:version="1.1 (c68e22c387, 2021-05-23)"
   inkscape:export-filename="H:\GitHub - Clone\coseerobe\gb-MaterialMkDocs\docs\img\info_covid.png"
   inkscape:export-xdpi="187.342"
   inkscape:export-ydpi="187.342"
   xmlns:inkscape="http://www.inkscape.org/namespaces/inkscape"
   xmlns:sodipodi="http://sodipodi.sourceforge.net/DTD/sodipodi-0.dtd"
   xmlns="http://www.w3.org/2000/svg"
   xmlns:svg="http://www.w3.org/2000/svg"
   xmlns:rdf="http://www.w3.org/1999/02/22-rdf-syntax-ns#"
   xmlns:cc="http://creativecommons.org/ns#"
   xmlns:dc="http://purl.org/dc/elements/1.1/">
  <sodipodi:namedview
     id="namedview1352"
     pagecolor="#ffffff"
     bordercolor="#666666"
     borderopacity="1.0"
     inkscape:pageshadow="2"
     inkscape:pageopacity="0.0"
     inkscape:pagecheckerboard="0"
     showgrid="false"
     inkscape:zoom="0.5"
     inkscape:cx="1306"
     inkscape:cy="557"
     inkscape:window-width="1920"
     inkscape:window-height="1027"
     inkscape:window-x="1272"
     inkscape:window-y="-8"
     inkscape:window-maximized="1"
     inkscape:current-layer="svg1350" />
  <title
     id="title1268">Group 3</title>
  <defs
     id="defs1275">
    <linearGradient
       x1="77.639084"
       y1="117.57591"
       x2="34.093384"
       y2="107.77582"
       id="linearGradient-1"
       gradientTransform="scale(1.264191,0.79101971)"
       gradientUnits="userSpaceOnUse">
      <stop
         stop-color="#D8D6D6"
         offset="0%"
         id="stop1270" />
      <stop
         stop-color="#A5A1A1"
         offset="100%"
         id="stop1272" />
    </linearGradient>
  </defs>
  <metadata
     id="metadata1434">
    <rdf:RDF>
      <cc:Work
         rdf:about="">
        <dc:title>Group 3</dc:title>
      </cc:Work>
    </rdf:RDF>
  </metadata>
  <rect
     style="fill:#fafafa;fill-opacity:1;stroke-width:5.97766"
     id="rect1719"
     width="1994.6257"
     height="1153.3267"
     x="-37.312866"
     y="-51.66333"
     inkscape:export-filename="H:\GitHub - Clone\coseerobe\gb-MaterialMkDocs\docs\img\info_covid.png"
     inkscape:export-xdpi="187.342"
     inkscape:export-ydpi="187.342" />
  <g
     id="informa-covid"
     transform="matrix(2.0868545,0,0,2.0868545,-561.31693,-692.6796)"
     style="fill:none;fill-rule:evenodd;stroke:none;stroke-width:1"
     inkscape:export-filename="H:\GitHub - Clone\coseerobe\gb-MaterialMkDocs\docs\img\info_covid.png"
     inkscape:export-xdpi="187.342"
     inkscape:export-ydpi="187.342">
    <g
       id="Group-3"
       transform="translate(303,405)">
      <rect
         id="Rectangle"
         fill="#fafafa"
         fill-rule="nonzero"
         x="0"
         y="0"
         width="852"
         height="299"
         rx="57" />
      <g
         id="Group"
         transform="translate(54,75)"
         fill-rule="nonzero">
        <path
           d="m 40.462325,257.95473 c -3.127542,0.92336 -4.983682,5.7248 -1.828244,7.78796 3.155438,2.06317 25.848145,7.95377 26.357189,5.78535 0.509045,-2.16843 -21.401402,-14.49666 -24.528945,-13.57331 z"
           id="Path-73"
           fill="#f9a826" />
        <path
           d="m 39.376537,255 h 3.805087 c -0.371228,3.69342 -0.71152,5.5709 -1.020877,5.63246 -0.464035,0.0923 -1.484912,0.18467 -2.041754,0 C 39.747765,260.50934 39.50028,258.63186 39.376537,255 Z"
           id="Path-74"
           fill="#f5d6d6" />
        <path
           d="m 70.462325,256.03852 c -3.127542,0.91785 -4.983682,5.69064 -1.828244,7.7415 3.155438,2.05086 25.848145,7.90632 26.357189,5.75083 0.509045,-2.15549 -21.401402,-14.41018 -24.528945,-13.49233 z"
           id="Path-73-Copy"
           fill="#f9a826" />
        <path
           d="m 70.026186,252 h 3.805087 c -0.371228,3.67138 -0.71152,5.53767 -1.020877,5.59886 -0.464035,0.0918 -1.484912,0.18357 -2.041754,0 C 70.397414,257.47648 70.149929,255.61019 70.026186,252 Z"
           id="Path-74-Copy"
           fill="#f5d6d6" />
        <g
           id="pantaloni"
           transform="translate(42,119)"
           fill="#fa7373">
          <path
             d="M 0,1.4824253 C 19.286198,0.49414177 31.017612,0 35.194241,0 41.459184,0 52.156818,43.873339 52.975624,74.491871 53.794431,105.1104 33.720137,134.5301 32.614558,135.36396 c -1.105578,0.83386 -4.330181,1.11182 -5.067233,-0.83386 -0.737053,-1.94569 8.595231,-17.8667 1.750499,-60.038229 C 24.961061,47.77236 15.19512,23.435878 0,1.4824253 Z"
             id="Path-58" />
        </g>
        <path
           d="m 47.436648,117.33601 c 9.752719,0 20.850916,-2.97393 22.503766,8.77316 1.466164,10.42028 -24.599258,128.54977 -25.874775,130.1197 -1.275517,1.56994 -4.099876,0.46175 -5.01096,-0.83114 -0.497193,-0.70555 -3.43633,-41.75677 -3.013155,-78.90891 0.352273,-30.92739 3.034548,-59.15281 11.395124,-59.15281 z"
           id="Path-58-Copy"
           fill="#ff7c7c" />
        <path
           d="M 61.183136,46 C 48.355485,50.593694 42.709962,55.775876 44.246565,61.546546 45.783169,67.317217 52.130568,72.468368 63.288764,77 L 74,64.990991 C 70.926304,63.654129 67.874669,61.512988 64.845097,58.567568 61.815525,55.622147 60.594871,51.432958 61.183136,46 Z"
           id="collo"
           fill="#f5d6d6" />
        <path
           d="m 48,58 c 8.087882,10.039841 13.388718,15.059761 15.902507,15.059761 2.513789,0 4.474792,-5.01992 5.883008,-15.059761 L 81,128 50.941504,121.77158 Z"
           id="maglia"
           fill="#f9a826" />
        <path
           d="M 48.407471,57.664603 C 31.016818,42.496382 27.656577,136.16963 37.348601,129.02693 c 9.692024,-7.14271 18.42172,-7.14271 29.419762,2.96944 10.998042,10.11214 -0.970238,-59.163546 -18.360892,-74.331767 z"
           id="Path-56"
           fill="#a6a1a1" />
        <path
           d="m 81.072652,138.75144 c -6.248489,-4.77763 -18.767334,-77.976762 -16.88117,-81.782771 1.886164,-3.806009 15.560855,4.270156 18.107177,12.62481 2.546322,8.354654 5.022482,73.935601 -1.226007,69.157961 z"
           id="Path-57"
           fill="#a5a1a1" />
        <path
           d="m 41.97039,61.201321 c -4.634179,-1.674418 -4.345605,7.533824 -3.404824,11.413056 4.838898,19.952795 17.75846,32.192453 26.778482,34.239163 10.350617,2.34865 45.366982,-24.310733 45.827092,-25.51699 0.46011,-1.206258 0.46011,-1.577415 0,-3.340407 C 110.71103,76.23315 89.919677,88.719821 71.693585,84.584167 53.467494,80.448513 46.604569,62.875738 41.97039,61.201321 Z"
           id="Path-55"
           fill="url(#linearGradient-1)"
           style="fill:url(#linearGradient-1)" />
        <path
           d="m 109.51474,78.924034 c 0,-0.463946 16.45803,-10.236795 18.22041,-10.856322 1.76238,-0.619527 -5.8248,4.071031 -6.44156,5.845712 -0.61676,1.77468 3.77292,2.134148 2.66865,5.01061 -1.10427,2.876461 -13.06716,2.598094 -13.71132,2.226937 -0.64416,-0.371156 -0.73618,-1.762992 -0.73618,-2.226937 z"
           id="Path-64"
           fill="#f5d6d6" />
        <ellipse
           id="Oval"
           fill="#f5d6d6"
           transform="rotate(-1,57.506873,29.508844)"
           cx="57.506874"
           cy="29.508844"
           rx="11.783004"
           ry="18.344519" />
        <path
           d="m 66.827375,10.797682 c 2.850066,1.62717 5.92987,5.383768 2.965558,7.953523 -2.964311,2.569756 -10.684748,-0.613782 -12.140253,0 -1.455506,0.613783 3.46772,2.356555 0,5.11951 -3.467721,2.762955 -8.140596,0.653126 -9.638065,2.559755 -1.497468,1.906628 2.557213,4.633548 1.668127,7.587845 -0.889086,2.954296 -3.150906,7.770684 -5.189727,4.113891 C 43.300165,35.992732 38.825937,29.03569 37.913183,22.225158 37.265857,17.395119 39.328232,12.575066 41.527457,9.8834833 46.82767,3.3966713 63.97731,9.1705107 66.827375,10.797682 Z"
           id="Path-61"
           fill="#593f34" />
        <path
           d="M 41.527457,11.894719 C 39.420563,5.6048615 27.792381,-2.3404884 22.344002,0.65008204 16.895624,3.6406525 23.066425,16.208036 17.710318,24.967753 12.354211,33.727469 3.6936527,26.805313 1.2144005,35.206772 c -2.4792522,8.40146 -1.55778476,20.62338 6.4871585,23.677732 3.859715,1.465384 2.573524,-11.452468 6.301811,-13.895812 4.042715,-2.649404 13.033215,4.94735 15.383833,0.914198 4.518414,-7.752619 -2.751103,-16.519659 0,-24.226251 2.751103,-7.706591 14.247148,-3.492062 12.140254,-9.78192 z"
           id="Path-62"
           fill="#593f34" />
        <path
           d="m 40.60072,6.8666295 c 1.606407,-0.3521494 3.661023,0.2079284 3.892295,1.462717 0.231273,1.2547886 -2.507592,1.6722435 -2.965558,3.5653725 -0.457966,1.89313 1.488413,3.449108 1.019411,4.479571 -0.469003,1.030464 -2.026109,-0.479133 -3.058232,0 -1.032124,0.479134 -0.504811,2.460954 -1.668127,2.194076 -1.163316,-0.266878 -2.339562,-1.673863 -2.316842,-3.108274 0.02272,-1.434411 2.250429,-1.262922 2.409516,-2.742594 0.159087,-1.479672 -2.170331,-2.435607 -1.7608,-3.2911137 0.40953,-0.8555068 2.438254,0.5167453 3.336253,0 C 40.386635,8.909639 38.994313,7.2187788 40.60072,6.8666295 Z"
           id="Path-63"
           fill="#f9a826" />
      </g>
      <path
         d="m 497.59286,207.09524 h 8.44283 c 1.10457,0 2,0.89543 2,2 V 267 v 0 h -12.44283 v -57.90476 c 0,-1.10457 0.89543,-2 2,-2 z"
         id="path1296"
         fill="#f9a826"
         fill-rule="nonzero" />
      <path
         d="m 513.18572,224.71429 h 8.44283 c 1.10457,0 2,0.89543 2,2 V 267 v 0 h -12.44283 v -40.28571 c 0,-1.10457 0.89543,-2 2,-2 z"
         id="Rectangle-Copy"
         fill="#f50057"
         fill-rule="nonzero" />
      <path
         d="m 528.77859,210.61905 h 8.44282 c 1.10457,0 2,0.89543 2,2 V 267 v 0 h -12.44282 v -54.38095 c 0,-1.10457 0.89543,-2 2,-2 z"
         id="Rectangle-Copy-2"
         fill="#f8dcaf"
         fill-rule="nonzero" />
      <path
         d="m 482,238.80952 h 8.44283 c 1.10457,0 2,0.89543 2,2 V 267 267 H 480 v -26.19048 c 0,-1.10457 0.89543,-2 2,-2 z"
         id="Rectangle-Copy-6"
         fill="#f8dcaf"
         fill-rule="nonzero" />
      <path
         d="m 544.37145,193 h 8.44283 c 1.10457,0 2,0.89543 2,2 v 72 0 h -12.44283 v -72 c 0,-1.10457 0.89543,-2 2,-2 z"
         id="Rectangle-Copy-5"
         fill="#f9a826"
         fill-rule="nonzero" />
      <path
         d="m 559.96431,214.14286 h 8.44283 c 1.10457,0 2,0.89543 2,2 V 267 v 0 h -12.44283 v -50.85714 c 0,-1.10457 0.89543,-2 2,-2 z"
         id="Rectangle-Copy-4"
         fill="#f50057"
         fill-rule="nonzero" />
      <path
         d="m 258.70158,266.5 10.5298,-38.28237 7.54967,21.72783 9.53642,-33.72987 8.9404,15.10602 17.48345,-65.59735 13.31125,37.24771 4.17219,-9.72579 7.35099,12.00204 5.96027,-7.03568 7.15231,11.58817 20.85512,-14.58715 L 385,220 l 16,11"
         id="Path-49"
         stroke="#f9a826"
         stroke-width="2"
         stroke-linecap="round"
         stroke-linejoin="round"
         stroke-dasharray="7, 8" />
      <polyline
         id="Path-49-Copy"
         stroke="#2f2e41"
         stroke-width="2"
         stroke-linecap="round"
         stroke-linejoin="round"
         points="246.17178 266.5 256.701581 228.217635 264.25125 249.945463 273.787673 216.215595 282.728071 231.321611 300.211514 165.72426 313.522773 202.971967 317.694958 193.246176 325.045951 205.248216 331.006216 198.212538 338.158534 209.800713 359.019461 100.540775 372.926746 125.786442 388.423435 86.0555555 404.9135 100.540775 415.641978 63.5" />
      <path
         d="M 575.55717,256.41053 H 584 c 1.10457,0 2,0.89543 2,2 v 8.57143 0 h -12.44283 v -8.57143 c 0,-1.10457 0.89543,-2 2,-2 z"
         id="Rectangle-Copy-3"
         fill="#f8dcaf"
         fill-rule="nonzero" />
      <polygon
         id="Line-Copy-Copy"
         fill="#afafaf"
         fill-rule="nonzero"
         points="590,267 590,267.99994 476,268 476,267.00006 " />
      <polygon
         id="Line-Copy-Copy-2"
         fill="#afafaf"
         fill-rule="nonzero"
         points="419,267 419,267.99994 245,268 245,267.00006 " />
      <polygon
         id="Line-Copy-Copy-3"
         fill="#afafaf"
         fill-rule="nonzero"
         points="245.93235,61 245.93235,267.98758 244.93235,268 244.93235,61.012419 " />
      <circle
         id="circle1309"
         fill="#f8dcaf"
         fill-rule="nonzero"
         cx="496"
         cy="141"
         r="4" />
      <path
         d="m 572.48756,141 c 0.28301,0 0.51244,0.22386 0.51244,0.5 0,0.26825 -0.2165,0.48716 -0.48831,0.49946 L 572.48756,142 H 503.51244 C 503.22943,142 503,141.77614 503,141.5 c 0,-0.26825 0.2165,-0.48717 0.48831,-0.49946 L 503.51244,141 Z"
         id="Line-4"
         fill="#afafaf"
         fill-rule="nonzero" />
      <circle
         id="Oval-Copy-4"
         fill="#00bfa6"
         fill-rule="nonzero"
         cx="496"
         cy="151"
         r="4" />
      <path
         d="m 555.48902,151 c 0.28221,0 0.51098,0.22386 0.51098,0.5 0,0.26825 -0.21589,0.48716 -0.48693,0.49946 L 555.48902,152 H 503.51098 C 503.22877,152 503,151.77614 503,151.5 c 0,-0.26825 0.21589,-0.48717 0.48693,-0.49946 L 503.51098,151 Z"
         id="Line-4-Copy"
         fill="#afafaf"
         fill-rule="nonzero" />
      <circle
         id="Oval-Copy-6"
         fill="#f9a826"
         fill-rule="nonzero"
         cx="496"
         cy="161"
         r="4" />
      <path
         d="m 563.48051,161 c 0.28691,0 0.51949,0.22386 0.51949,0.5 0,0.26825 -0.21948,0.48716 -0.49504,0.49946 L 563.48051,162 H 503.51949 C 503.23258,162 503,161.77614 503,161.5 c 0,-0.26825 0.21948,-0.48717 0.49504,-0.49946 L 503.51949,161 Z"
         id="Line-4-Copy-2"
         fill="#afafaf"
         fill-rule="nonzero" />
      <g
         id="Group-2"
         transform="translate(644,75)"
         fill-rule="nonzero">
        <path
           d="m 111.98651,246.30285 c 4.93191,3.75751 7.06645,6.61438 6.40362,8.57061 -0.99425,2.93436 -18.946828,13.03697 -21.865783,9.63519 -1.945971,-2.26786 3.208083,-8.33646 15.462163,-18.2058 z"
           id="Path-75-Copy"
           fill="#f9a826"
           transform="rotate(-10,107.31613,255.75148)" />
        <path
           d="m 85.724024,239.84164 c 4.877604,3.71002 6.974352,6.54917 6.290243,8.51746 -1.026162,2.95243 -19.057151,13.28265 -21.930288,9.90625 -1.915424,-2.25093 3.297924,-8.39217 15.640045,-18.42371 z"
           id="Path-75-Copy-2"
           fill="#f9a826"
           transform="rotate(21,80.919239,249.38857)" />
        <path
           d="m 72.176967,133.52087 c 5.455705,-21.80797 21.296075,3.51153 22.707526,17.35082 1.411452,13.83928 -10.580129,30.38068 -10.504657,53.95945 0.04125,12.88747 2.099133,22.36198 3.630286,36.8205 0.336434,3.17691 -2.008243,4.80268 -3.630286,4.23766 -1.622042,-0.56503 -11.98899,-22.73154 -15.448024,-41.05816 -3.459034,-18.32662 -2.21055,-49.5023 3.245155,-71.31027 z"
           id="Path-66"
           fill="#262535" />
        <path
           d="m 86.088923,127.40828 c 10.415931,-1.79344 22.319857,2.53615 22.319857,8.78785 0,5.11162 2.18414,18.92573 0,43.40125 -2.32082,26.00703 7.57958,70.32394 6.5101,71.30226 -2.2205,2.03124 -5.21334,0.77381 -6.46841,0 -1.22163,-0.75319 -9.932452,-37.85461 -14.746538,-49.42229 -5.962634,-14.32752 -18.030941,-72.27563 -7.615009,-74.06907 z"
           id="Path-70"
           fill="#2f2e41" />
        <ellipse
           id="viso"
           fill="#f5d6d6"
           transform="rotate(22,99.26488,29.48939)"
           cx="99.264877"
           cy="29.489389"
           rx="14.495452"
           ry="22.147648" />
        <path
           d="m 94.194166,0.41203311 c 4.07663,-1.45489971 11.043764,0.93128299 13.417034,7.34753009 1.00127,2.7069848 13.81754,1.1601364 14.31818,6.6707838 0.50063,5.510648 -1.77893,5.42747 -3.10394,10.054515 -1.32501,4.627045 0.9635,5.461126 -2.50318,9.861159 -3.46668,4.400032 -1.60203,3.383731 -7.70979,8.410988 -1.93617,1.593651 -1.17055,-5.107005 -2.2028,-6.86414 -1.04167,-1.773198 -4.87154,-0.26702 -4.40559,-3.190375 0.52888,-3.318114 4.35839,-6.844655 4.40559,-8.217632 0.13,-3.781284 -3.93674,0.737367 -8.711055,-2.900341 C 92.924301,17.946814 85.100377,3.6574965 94.194166,0.41203311 Z"
           id="capelli"
           fill="#8e541e" />
        <path
           d="m 0,36.429304 c 0,-0.485927 17.806657,-10.721808 19.713449,-11.370688 1.906792,-0.648879 -6.302105,4.263914 -6.969401,6.122678 -0.667296,1.858764 4.082078,2.235263 2.887323,5.24801 C 14.436617,39.44205 1.4934431,39.150494 0.79650299,38.761752 0.09956287,38.373011 0,36.91523 0,36.429304 Z"
           id="mano-s"
           fill="#f5d6d6"
           transform="matrix(-1,0,0,1,20,0)" />
        <path
           d="m 81.399898,58.010193 c 9.105178,16.092037 -68.889718,6.9892 -69.759421,6.434111 -0.884324,-0.56442 0.661505,-2.240279 1.102971,-3.030387 0.118322,-0.211765 31.44991,-2.549013 48.281582,-11.270273 2.151526,-1.114805 12.684047,-4.193294 14.266253,-5.525616 2.644895,-2.227176 0.847212,4.093425 6.108615,13.392165 z"
           id="Path-71"
           fill="#f5d6d6"
           transform="matrix(0.93969262,0.34202014,0.34202014,-0.93969262,-16.278309,92.318876)" />
        <path
           d="m 108.8298,145.49013 c -1.46425,-1.10509 -3.02049,1.95726 -3.8823,5.581 -0.8618,3.62374 -1.61054,9.52792 0,10.74342 1.61055,1.2155 4.46106,-3.82882 5.17641,-6.83672 0.71534,-3.00791 0.17015,-8.38261 -1.29411,-9.4877 z"
           id="mano-d"
           fill="#f5d6d6" />
        <path
           d="m 115.59267,73.442224 c 6.33764,-8.465637 21.28855,22.537586 19.21096,35.786556 -2.65317,16.9194 -22.64805,35.86192 -23.37003,36.94097 -1.28733,1.92401 -3.06979,1.92401 -4.15907,0 -0.64565,-1.14041 11.03773,-23.15657 9.7045,-40.30798 -0.91608,-11.785034 -7.72399,-23.953908 -1.38636,-32.419546 z"
           id="Path-72"
           fill="#f5d6d6" />
        <path
           d="M 68.948307,109.22494 C 94.434185,74.245735 66.580892,61.221711 93.447055,56.728017 c 7.925605,-1.325654 19.073915,-1.526392 23.272855,5.473935 11.67652,19.46666 5.80271,52.077428 5.80271,56.141098 0,5.525 -7.76075,23.79183 -15.90968,18.80328 -2.16692,-1.32653 -4.11673,-2.35033 -5.66914,-2.76296 -2.143881,-0.56985 11.78675,-6.77258 -5.530704,-6.77258 -8.068397,0 -13.794132,2.82297 -19.402804,1.78226 -10.109015,-1.87578 -15.001887,-9.27064 -7.061985,-20.16811 z"
           id="Path-76"
           fill="#00bfa6"
           transform="rotate(180,94.5,97)" />
        <path
           d="m 102.683,38 c -4.712159,6.440951 -8.307977,11.725518 -10.787457,15.853701 -1.265844,2.107552 -6.849598,5.614516 -7.710735,8.592021 C 82,70 101.52506,65.932997 111.96553,64.923522 114,65 107.44968,63.620053 104.78846,56.406606 103.50907,52.938727 102.80725,46.803192 102.683,38 Z"
           id="path1327"
           fill="#f5d6d6" />
        <path
           d="m 114.66842,66.713326 c -3.80753,3.580783 -5.86763,25.927127 0,29.520252 5.86763,3.593126 16.56827,-6.168091 15.21435,-14.308285 -1.35393,-8.140195 -11.40681,-18.79275 -15.21435,-15.211967 z"
           id="Path-78"
           fill="#00bfa6" />
      </g>
      <g
         id="Group-5-Copy"
         transform="translate(486,33)">
        <circle
           id="Oval-Copy-21"
           fill="#f8dcaf"
           cx="44.996243"
           cy="44.996243"
           r="44.996243" />
        <path
           d="M 83.964133,67.494365 C 96.389503,45.972994 89.015736,18.453723 67.494365,6.0283535 52.495617,32.006947 44.996243,44.996243 44.996243,44.996243"
           id="Oval-Copy-20"
           fill="#00bfa6" />
        <path
           d="M 22.498122,83.964133 C 44.019493,96.389503 71.538764,89.015736 83.964133,67.494365 57.98554,52.495617 44.996243,44.996243 44.996243,44.996243"
           id="Oval-Copy-19"
           fill="#f9a826" />
      </g>
      <g
         id="cagnolino"
         transform="translate(166.00968,283)"
         fill-rule="nonzero">
        <path
           d="m 47.708981,55.532545 c 3.385854,-6.395532 10.865726,-4.859632 11.651266,-11.209865 0.785541,-6.350232 -9.688948,-13.214548 -8.50338,-14.237346 1.185567,-1.022798 12.755071,7.323233 14.063283,15.669264 1.308213,8.34603 -16.08002,16.103305 -18.355855,17.019356 -2.275835,0.916051 -2.241168,-0.845876 1.144686,-7.241409 z"
           id="Path-83"
           fill="#cb9c71" />
        <path
           d="m 39.533673,61.470068 c -2.038594,3.181808 -2.756907,6.101113 -3.251229,7.829712 -0.494322,1.7286 1.82586,4.888943 4.812133,1.470531 2.986273,-3.418411 0.477689,-12.48205 -1.560904,-9.300243 z"
           id="Path-84-Copy"
           stroke="#a67d56"
           fill="#a67d56"
           transform="rotate(49,39.342995,66.548724)" />
        <path
           d="m 6.0018001,54.367257 c -1.9526367,3.194297 -3.4701529,3.71908 -3.9433555,5.454651 -0.4732027,1.73557 1.5379086,5.206711 5.4418306,3.884372 C 11.404197,62.38394 13.78825,44.267931 12.744938,42.507525 11.701626,40.747119 10.78679,39.839532 8.5649812,43.747218 6.3431719,47.654904 7.9544367,51.17296 6.0018001,54.367257 Z"
           id="Path-84"
           fill="#ab8969" />
        <path
           d="m 9.0886289,27.730729 c 0.9816161,-1.007577 -0.080781,-6.480822 0.8393809,-6.711092 1.2194822,-0.305174 14.6377162,3.019697 16.4347622,4.888558 3.903292,4.059279 4.862694,7.86479 8.761645,12.757735 2.351408,2.950874 10.178581,4.758399 14.325912,10.065356 2.663918,3.40877 2.906199,10.423579 2.200792,12.964842 -0.645876,2.326803 -5.120894,6.387925 -9.675181,8.532771 -2.032072,0.957006 -4.567682,0.952688 -5.771889,0.372791 -1.204207,-0.579897 -2.939941,-2.480259 -1.079634,-4.224965 1.037537,-0.973063 5.273261,-2.31355 4.775304,-2.899485 C 38.819223,62.205843 31.289469,59.113059 17.310457,54.198887 2.4862521,46.411698 7.5181105,29.342782 9.0886289,27.730729 Z"
           id="Path-82"
           fill="#ab8969" />
        <path
           d="M 9.2424328,28.831693 C 7.8093556,28.411464 7.5860074,26.280126 8.6780033,25.385811 c 0.2812755,-0.230357 3.1105687,-0.05357 6.0474597,-0.462252 2.956504,-0.411415 5.995621,-2.32127 7.015053,-1.84901 0.362848,0.168092 1.249808,1.050574 1.249808,1.638895 0,0.40256 -3.334095,2.586993 -6.813471,3.613974 -3.058395,0.902722 -6.264021,0.70086 -6.9344202,0.504275 z"
           id="Path-86"
           fill="#7a4a3c" />
        <path
           d="M 22.11615,11.036596 C 17.917173,7.2514856 32.036309,4.9074195 32.983401,9.926513 33.930492,14.945607 25.204151,22.02107 24.463117,20.745695 23.722083,19.47032 26.315127,14.821706 22.11615,11.036596 Z"
           id="Path-79"
           fill="#a67d56"
           transform="rotate(6,27.196605,13.977405)" />
        <path
           d="m 23.654313,7.7493747 c 3.228225,-1.0871138 8.743014,-0.7736439 9.322726,2.2985293 0.947092,5.019093 -7.779249,12.094556 -8.520284,10.819182 -0.485269,-0.835186 0.538768,-6.720754 2.018532,-8.523289 1.479764,-1.802535 3.578927,-5.0524325 -2.820974,-4.5944223 z"
           id="Path-79-Copy"
           fill="#cb9c71"
           transform="rotate(6,28.351561,14.098796)" />
        <path
           d="M 3.1396198,5.8392213 C -1.0593279,2.0523409 13.056257,-0.28899336 14.004296,4.7313893 14.481804,7.26005 14.340492,9.6698976 12.166772,11.911433 10.024806,14.120224 5.856168,16.184147 5.4883106,15.550932 4.7471422,14.275114 7.3385675,9.6261017 3.1396198,5.8392213 Z"
           id="Path-79-Copy-3"
           fill="#cb9c71"
           transform="matrix(-0.90630779,-0.42261826,-0.42261826,0.90630779,19.517102,4.3268372)" />
        <path
           d="M 8.8863008,4.8289651 C 16.763065,1.9662888 22.768837,3.8629501 25.361468,9.6965854 c 0.95398,2.1465326 0.815201,4.3678076 -0.338098,6.8978176 -1.981022,4.3458 -2.05155,6.469478 -8.057808,9.416634 C 9.374957,29.735601 2.4933471,22.863915 2.3445267,19.360144 2.1957063,15.856372 3.0355385,17.02203 4.3176345,13.500936 5.5982876,9.9838049 4.9501364,6.2594973 8.8863008,4.8289651 Z"
           id="Path-77"
           fill="#ab8969"
           transform="rotate(6,14.160118,15.300205)" />
        <path
           d="m 17.008741,46.644678 c -1.935839,4.283152 3.999069,10.544463 3.608959,16.055576 -0.390109,5.511113 -10.826877,6.779946 -6.637166,9.982742 4.189711,3.202797 8.497183,-0.249764 10.287608,-1.788574 1.790424,-1.538811 8.401779,-18.845953 4.521569,-24.249744 -3.88021,-5.403792 -9.84513,-4.283153 -11.78097,0 z"
           id="Path-85"
           fill="#ab8969" />
        <path
           d="m 23.654313,7.7493747 c 3.228225,-1.0871138 8.743014,-0.7736439 9.322726,2.2985293 0.947092,5.019093 -7.779249,12.094556 -8.520284,10.819182 -0.485269,-0.835186 0.538768,-6.720754 2.018532,-8.523289 1.479764,-1.802535 3.578927,-5.0524325 -2.820974,-4.5944223 z"
           id="Path-79-Copy-2"
           fill="#cb9c71"
           transform="rotate(6,28.351561,14.098796)" />
      </g>
    </g>
  </g>
</svg>
